<svg height="401pt" viewBox="-22 0 401 401.60533" width="401pt" xmlns="http://www.w3.org/2000/svg"><path d="m294.589844 12.484375c-40.390625-13.109375-75.496094 5.929687-96.46875 17.308594-1.800782.972656-3.492188 1.890625-5.078125 2.730469-2.75 1.457031-6.09375 1.1875-8.574219-.691407-20.328125-15.402343-44.019531-31.832031-67.972656-31.832031-23.261719-.109375-46.007813 6.867188-65.207032 20-9.21875 6.363281-17.464843 14.027344-24.492187 22.75-.394531.757812-.878906 1.46875-1.441406 2.117188-34.710938 44.660156-33.207031 107.578124 3.597656 150.53125.214844.25.414063.507812.59375.78125.570313.855468 1.28125 1.847656 1.992187 2.84375.765626 1.074218 1.535157 2.148437 2.164063 3.085937 16.71875 22.390625 24.441406 52.710937 26.992187 64.730469 1.867188 9.328125 3.75 19.351562 5.011719 30.089844 3.507813 30.382812 9.433594 55.832031 17.140625 73.617187.015625.035156.027344.265625.042969.296875 8 19.203125 17.574219 29.757812 28.460937 30.757812h2.085938c4.476562 0 14.0625-5.871093 27.96875-43.886718.023438-.058594.046875-.21875.066406-.277344l15.34375-39.085938c4.027344-10.441406 14.085938-17.3125 25.28125-17.265624.164063 0 .328125-.011719.5-.007813 11.371094.132813 21.433594 7.382813 25.15625 18.128906l13.558594 38.597657c11.753906 32.128906 22.144531 43.800781 27.9375 43.800781h2.070312c7.585938-1 18.578126-7 28.476563-30.757813 7.289063-17.378906 12.75-40.921875 17.191406-73.882812 1.257813-10.695313 3.140625-20.757813 4.984375-29.984375 2.574219-12.140625 10.335938-42.609375 27.140625-65.019531 27.847657-37.707032 36.550781-85.121094 23.25-126.757813-9.71875-31.4375-30.769531-54.28125-57.773437-62.71875zm0 0"/></svg>